<?xml version="1.0" standalone="no"?><svg xmlns="http://www.w3.org/2000/svg" viewBox="0 0 1440 320"><path fill="#8B5CF6" fill-opacity="1" d="M0,32L0,64L51.4,64L51.4,224L102.9,224L102.9,96L154.3,96L154.3,0L205.7,0L205.7,32L257.1,32L257.1,32L308.6,32L308.6,224L360,224L360,224L411.4,224L411.4,0L462.9,0L462.9,160L514.3,160L514.3,128L565.7,128L565.7,192L617.1,192L617.1,256L668.6,256L668.6,224L720,224L720,96L771.4,96L771.4,64L822.9,64L822.9,128L874.3,128L874.3,160L925.7,160L925.7,96L977.1,96L977.1,224L1028.6,224L1028.6,160L1080,160L1080,224L1131.4,224L1131.4,32L1182.9,32L1182.9,224L1234.3,224L1234.3,32L1285.7,32L1285.7,64L1337.1,64L1337.1,256L1388.6,256L1388.6,64L1440,64L1440,320L1388.6,320L1388.6,320L1337.1,320L1337.1,320L1285.7,320L1285.7,320L1234.3,320L1234.3,320L1182.9,320L1182.9,320L1131.4,320L1131.4,320L1080,320L1080,320L1028.6,320L1028.6,320L977.1,320L977.1,320L925.7,320L925.7,320L874.3,320L874.3,320L822.9,320L822.9,320L771.4,320L771.4,320L720,320L720,320L668.6,320L668.6,320L617.1,320L617.1,320L565.7,320L565.7,320L514.3,320L514.3,320L462.9,320L462.9,320L411.4,320L411.4,320L360,320L360,320L308.6,320L308.6,320L257.1,320L257.1,320L205.7,320L205.7,320L154.3,320L154.3,320L102.9,320L102.9,320L51.4,320L51.4,320L0,320L0,320Z"></path></svg>