<?xml version="1.0" standalone="no"?><svg xmlns="http://www.w3.org/2000/svg" viewBox="0 0 1440 320"><path fill="#fde047" fill-opacity="1" d="M0,320L34.3,309.3C68.6,299,137,277,206,245.3C274.3,213,343,171,411,176C480,181,549,235,617,218.7C685.7,203,754,117,823,69.3C891.4,21,960,11,1029,16C1097.1,21,1166,43,1234,42.7C1302.9,43,1371,21,1406,10.7L1440,0L1440,320L1405.7,320C1371.4,320,1303,320,1234,320C1165.7,320,1097,320,1029,320C960,320,891,320,823,320C754.3,320,686,320,617,320C548.6,320,480,320,411,320C342.9,320,274,320,206,320C137.1,320,69,320,34,320L0,320Z"></path></svg>